<svg xmlns="http://www.w3.org/2000/svg" viewBox="0 0 64 64" width="64" height="64">
  <!-- White background circle -->
  <circle cx="32" cy="32" r="32" fill="#ffffff"/>

  <!-- Tooth body — purple, matches logo left side -->
  <path d="
    M32 8
    C24 8, 16 14, 16 22
    C16 28, 18 32, 18 38
    C18 46, 22 56, 26 56
    C28 56, 30 50, 32 44
    C34 50, 36 56, 38 56
    C42 56, 46 46, 46 38
    C46 32, 48 28, 48 22
    C48 14, 40 8, 32 8 Z
  " fill="#6b2d9b"/>

  <!-- Pink accent arc — right-side swoosh from logo -->
  <path d="
    M40 10
    C46 13, 51 19, 50 26
    C49 31, 46 34, 45 38
  " fill="none" stroke="#e8198b" stroke-width="3.5" stroke-linecap="round"/>

  <!-- "A" letter centred in tooth -->
  <text
    x="32" y="38"
    text-anchor="middle"
    font-family="'Arial Black', Arial, sans-serif"
    font-size="20"
    font-weight="900"
    fill="#ffffff"
    letter-spacing="-1"
  >A</text>
</svg>
